<mxfile host="Electron" agent="Mozilla/5.0 (Windows NT 10.0; Win64; x64) AppleWebKit/537.36 (KHTML, like Gecko) draw.io/24.7.8 Chrome/128.0.6613.36 Electron/32.0.1 Safari/537.36" version="24.7.8">
  <diagram name="Halaman-1" id="aoqG2UJsjmu9qE-R1NFX">
    <mxGraphModel dx="1220" dy="1987" grid="1" gridSize="10" guides="1" tooltips="1" connect="1" arrows="1" fold="1" page="1" pageScale="1" pageWidth="827" pageHeight="1169" math="0" shadow="0">
      <root>
        <mxCell id="0" />
        <mxCell id="1" parent="0" />
        <mxCell id="QvUUkNCLXhxBll5FFId4-80" value="" style="shape=partialRectangle;whiteSpace=wrap;html=1;top=0;left=0;fillColor=none;" vertex="1" parent="1">
          <mxGeometry x="80" y="1060" width="700" height="100" as="geometry" />
        </mxCell>
        <mxCell id="QvUUkNCLXhxBll5FFId4-79" value="" style="shape=partialRectangle;whiteSpace=wrap;html=1;top=0;left=0;fillColor=none;" vertex="1" parent="1">
          <mxGeometry x="80" y="1060" width="520" height="60" as="geometry" />
        </mxCell>
        <mxCell id="QvUUkNCLXhxBll5FFId4-66" value="" style="shape=partialRectangle;whiteSpace=wrap;html=1;bottom=0;right=0;fillColor=none;rotation=-90;" vertex="1" parent="1">
          <mxGeometry x="-58.21" y="675.08" width="385.61" height="110.47" as="geometry" />
        </mxCell>
        <mxCell id="QvUUkNCLXhxBll5FFId4-76" value="" style="shape=partialRectangle;whiteSpace=wrap;html=1;top=0;left=0;fillColor=none;rotation=90;" vertex="1" parent="1">
          <mxGeometry x="131.59" y="850.93" width="158.42" height="262.81" as="geometry" />
        </mxCell>
        <mxCell id="QvUUkNCLXhxBll5FFId4-64" value="" style="shape=partialRectangle;whiteSpace=wrap;html=1;bottom=0;right=0;fillColor=none;rotation=90;" vertex="1" parent="1">
          <mxGeometry x="670" y="170" width="85" height="815" as="geometry" />
        </mxCell>
        <mxCell id="wc6qztgDE9MtCntjSy3h-3" value="" style="edgeStyle=none;curved=1;rounded=0;orthogonalLoop=1;jettySize=auto;html=1;fontSize=12;startSize=8;endSize=8;entryX=0.5;entryY=0;entryDx=0;entryDy=0;" parent="1" edge="1">
          <mxGeometry relative="1" as="geometry">
            <mxPoint x="253" y="-390" as="sourcePoint" />
            <mxPoint x="253" y="-350" as="targetPoint" />
          </mxGeometry>
        </mxCell>
        <mxCell id="wc6qztgDE9MtCntjSy3h-1" value="Start" style="ellipse;whiteSpace=wrap;html=1;" parent="1" vertex="1">
          <mxGeometry x="200" y="-520" width="106" height="62" as="geometry" />
        </mxCell>
        <mxCell id="wc6qztgDE9MtCntjSy3h-5" value="" style="edgeStyle=none;curved=1;rounded=0;orthogonalLoop=1;jettySize=auto;html=1;fontSize=12;startSize=8;endSize=8;" parent="1" source="wc6qztgDE9MtCntjSy3h-2" target="wc6qztgDE9MtCntjSy3h-4" edge="1">
          <mxGeometry relative="1" as="geometry" />
        </mxCell>
        <mxCell id="wc6qztgDE9MtCntjSy3h-2" value="&lt;font style=&quot;font-size: 10px;&quot;&gt;Output&lt;/font&gt;&lt;div style=&quot;font-size: 10px;&quot;&gt;&lt;b&gt;&lt;font style=&quot;font-size: 10px;&quot;&gt;Program CRUD Catatan Pribad&lt;/font&gt;&lt;span style=&quot;font-size: 10px;&quot;&gt;i&amp;nbsp;&lt;/span&gt;&lt;/b&gt;&lt;/div&gt;" style="shape=parallelogram;perimeter=parallelogramPerimeter;whiteSpace=wrap;html=1;fixedSize=1;" parent="1" vertex="1">
          <mxGeometry x="182" y="-30" width="142" height="64" as="geometry" />
        </mxCell>
        <mxCell id="wc6qztgDE9MtCntjSy3h-9" value="" style="edgeStyle=none;curved=1;rounded=0;orthogonalLoop=1;jettySize=auto;html=1;fontSize=12;startSize=8;endSize=8;" parent="1" source="wc6qztgDE9MtCntjSy3h-4" target="wc6qztgDE9MtCntjSy3h-8" edge="1">
          <mxGeometry relative="1" as="geometry" />
        </mxCell>
        <mxCell id="wc6qztgDE9MtCntjSy3h-4" value="&lt;span style=&quot;font-size: 10px;&quot;&gt;&lt;b&gt;Input&lt;/b&gt;&lt;/span&gt;&lt;br&gt;&lt;div&gt;&lt;span style=&quot;font-size: 10px;&quot;&gt;Username&amp;nbsp;&lt;/span&gt;&lt;/div&gt;&lt;div&gt;&lt;span style=&quot;font-size: 10px;&quot;&gt;Password&lt;/span&gt;&lt;/div&gt;" style="shape=parallelogram;perimeter=parallelogramPerimeter;whiteSpace=wrap;html=1;fixedSize=1;" parent="1" vertex="1">
          <mxGeometry x="180" y="80" width="142" height="64" as="geometry" />
        </mxCell>
        <mxCell id="OFa0QZV5chmp_ZGWXEVX-45" value="" style="edgeStyle=orthogonalEdgeStyle;rounded=0;orthogonalLoop=1;jettySize=auto;html=1;" parent="1" source="wc6qztgDE9MtCntjSy3h-8" target="wc6qztgDE9MtCntjSy3h-4" edge="1">
          <mxGeometry relative="1" as="geometry">
            <mxPoint x="120" y="100" as="targetPoint" />
            <Array as="points">
              <mxPoint x="140" y="247" />
              <mxPoint x="140" y="100" />
            </Array>
          </mxGeometry>
        </mxCell>
        <mxCell id="OFa0QZV5chmp_ZGWXEVX-47" value="" style="edgeStyle=orthogonalEdgeStyle;rounded=0;orthogonalLoop=1;jettySize=auto;html=1;" parent="1" source="wc6qztgDE9MtCntjSy3h-8" target="wc6qztgDE9MtCntjSy3h-15" edge="1">
          <mxGeometry relative="1" as="geometry" />
        </mxCell>
        <mxCell id="wc6qztgDE9MtCntjSy3h-8" value="username and password &quot;true&quot;" style="rhombus;whiteSpace=wrap;html=1;" parent="1" vertex="1">
          <mxGeometry x="187" y="198" width="132" height="98" as="geometry" />
        </mxCell>
        <mxCell id="OFa0QZV5chmp_ZGWXEVX-49" value="" style="edgeStyle=orthogonalEdgeStyle;rounded=0;orthogonalLoop=1;jettySize=auto;html=1;" parent="1" source="wc6qztgDE9MtCntjSy3h-15" target="OFa0QZV5chmp_ZGWXEVX-48" edge="1">
          <mxGeometry relative="1" as="geometry" />
        </mxCell>
        <mxCell id="wc6qztgDE9MtCntjSy3h-15" value="&lt;b&gt;Output&amp;nbsp;&lt;/b&gt;&lt;div&gt;Catatan Ku&lt;/div&gt;&lt;div&gt;Menu :&lt;/div&gt;&lt;div&gt;[1] Lihat Daftar Catatan&lt;/div&gt;&lt;div&gt;[2] Tambah Catatan&lt;/div&gt;&lt;div&gt;[3] Edit Catatan&lt;/div&gt;&lt;div&gt;[4] Hapus Catatan&amp;nbsp;&lt;/div&gt;&lt;div&gt;[5] Keluar Program&lt;/div&gt;" style="shape=parallelogram;perimeter=parallelogramPerimeter;whiteSpace=wrap;html=1;fixedSize=1;" parent="1" vertex="1">
          <mxGeometry x="159" y="340" width="188" height="132" as="geometry" />
        </mxCell>
        <mxCell id="wc6qztgDE9MtCntjSy3h-19" value="" style="edgeStyle=none;curved=1;rounded=0;orthogonalLoop=1;jettySize=auto;html=1;fontSize=12;startSize=8;endSize=8;entryX=0.439;entryY=-0.07;entryDx=0;entryDy=0;entryPerimeter=0;" parent="1" source="wc6qztgDE9MtCntjSy3h-16" target="QvUUkNCLXhxBll5FFId4-50" edge="1">
          <mxGeometry relative="1" as="geometry">
            <mxPoint x="253.5" y="710" as="targetPoint" />
          </mxGeometry>
        </mxCell>
        <mxCell id="wc6qztgDE9MtCntjSy3h-21" value="" style="edgeStyle=none;curved=1;rounded=0;orthogonalLoop=1;jettySize=auto;html=1;fontSize=12;startSize=8;endSize=8;" parent="1" source="wc6qztgDE9MtCntjSy3h-16" target="wc6qztgDE9MtCntjSy3h-20" edge="1">
          <mxGeometry relative="1" as="geometry" />
        </mxCell>
        <mxCell id="wc6qztgDE9MtCntjSy3h-16" value="Pilihan = 1" style="rhombus;whiteSpace=wrap;html=1;" parent="1" vertex="1">
          <mxGeometry x="210" y="605" width="87" height="80" as="geometry" />
        </mxCell>
        <mxCell id="FYlPLXtmQj6snUq1epLe-4" value="" style="edgeStyle=orthogonalEdgeStyle;rounded=0;orthogonalLoop=1;jettySize=auto;html=1;" parent="1" source="wc6qztgDE9MtCntjSy3h-18" target="FYlPLXtmQj6snUq1epLe-3" edge="1">
          <mxGeometry relative="1" as="geometry" />
        </mxCell>
        <mxCell id="wc6qztgDE9MtCntjSy3h-18" value="&lt;b&gt;Output&amp;nbsp;&lt;/b&gt;&lt;div&gt;Lihat Catatan&lt;/div&gt;" style="shape=parallelogram;perimeter=parallelogramPerimeter;whiteSpace=wrap;html=1;fixedSize=1;" parent="1" vertex="1">
          <mxGeometry x="193.5" y="800" width="120" height="60" as="geometry" />
        </mxCell>
        <mxCell id="OFa0QZV5chmp_ZGWXEVX-19" value="" style="edgeStyle=orthogonalEdgeStyle;rounded=0;orthogonalLoop=1;jettySize=auto;html=1;" parent="1" source="wc6qztgDE9MtCntjSy3h-20" target="OFa0QZV5chmp_ZGWXEVX-18" edge="1">
          <mxGeometry relative="1" as="geometry" />
        </mxCell>
        <mxCell id="QvUUkNCLXhxBll5FFId4-36" value="" style="edgeStyle=orthogonalEdgeStyle;rounded=0;orthogonalLoop=1;jettySize=auto;html=1;" edge="1" parent="1" source="OFa0QZV5chmp_ZGWXEVX-13" target="OFa0QZV5chmp_ZGWXEVX-15">
          <mxGeometry relative="1" as="geometry" />
        </mxCell>
        <mxCell id="OFa0QZV5chmp_ZGWXEVX-13" value="&lt;b&gt;Input&lt;/b&gt;&lt;div&gt;Tanggal Catatan&lt;/div&gt;&lt;div&gt;Isi Catatan&amp;nbsp;&lt;/div&gt;" style="shape=parallelogram;perimeter=parallelogramPerimeter;whiteSpace=wrap;html=1;fixedSize=1;" parent="1" vertex="1">
          <mxGeometry x="340" y="847.5" width="140" height="60" as="geometry" />
        </mxCell>
        <mxCell id="OFa0QZV5chmp_ZGWXEVX-32" value="" style="edgeStyle=orthogonalEdgeStyle;rounded=0;orthogonalLoop=1;jettySize=auto;html=1;" parent="1" source="OFa0QZV5chmp_ZGWXEVX-15" target="OFa0QZV5chmp_ZGWXEVX-31" edge="1">
          <mxGeometry relative="1" as="geometry" />
        </mxCell>
        <mxCell id="OFa0QZV5chmp_ZGWXEVX-15" value="&lt;b&gt;Output&lt;/b&gt;&lt;div&gt;Catatan Berhasil Di Tambahkan&lt;/div&gt;" style="shape=parallelogram;perimeter=parallelogramPerimeter;whiteSpace=wrap;html=1;fixedSize=1;" parent="1" vertex="1">
          <mxGeometry x="340" y="940" width="140" height="60" as="geometry" />
        </mxCell>
        <mxCell id="OFa0QZV5chmp_ZGWXEVX-26" value="" style="edgeStyle=orthogonalEdgeStyle;rounded=0;orthogonalLoop=1;jettySize=auto;html=1;" parent="1" source="OFa0QZV5chmp_ZGWXEVX-18" target="OFa0QZV5chmp_ZGWXEVX-25" edge="1">
          <mxGeometry relative="1" as="geometry" />
        </mxCell>
        <mxCell id="QvUUkNCLXhxBll5FFId4-87" value="" style="edgeStyle=orthogonalEdgeStyle;rounded=0;orthogonalLoop=1;jettySize=auto;html=1;entryX=0.533;entryY=0;entryDx=0;entryDy=0;entryPerimeter=0;" edge="1" parent="1" source="OFa0QZV5chmp_ZGWXEVX-18" target="QvUUkNCLXhxBll5FFId4-52">
          <mxGeometry relative="1" as="geometry">
            <mxPoint x="604" y="720" as="targetPoint" />
          </mxGeometry>
        </mxCell>
        <mxCell id="OFa0QZV5chmp_ZGWXEVX-18" value="Pilihan = 3" style="rhombus;whiteSpace=wrap;html=1;" parent="1" vertex="1">
          <mxGeometry x="560" y="605" width="87" height="80" as="geometry" />
        </mxCell>
        <mxCell id="FYlPLXtmQj6snUq1epLe-16" value="" style="edgeStyle=orthogonalEdgeStyle;rounded=0;orthogonalLoop=1;jettySize=auto;html=1;" parent="1" source="OFa0QZV5chmp_ZGWXEVX-20" target="OFa0QZV5chmp_ZGWXEVX-22" edge="1">
          <mxGeometry relative="1" as="geometry" />
        </mxCell>
        <mxCell id="OFa0QZV5chmp_ZGWXEVX-20" value="&lt;b style=&quot;&quot;&gt;&lt;font style=&quot;font-size: 12px;&quot;&gt;Input&lt;/font&gt;&lt;/b&gt;&lt;div style=&quot;&quot;&gt;&lt;font style=&quot;font-size: 12px;&quot;&gt;&lt;font style=&quot;font-size: 12px;&quot;&gt;&amp;nbsp;Index&amp;nbsp;&lt;/font&gt;&lt;span style=&quot;background-color: initial;&quot;&gt;catatan yang&amp;nbsp;&lt;/span&gt;&lt;/font&gt;&lt;/div&gt;&lt;div style=&quot;&quot;&gt;&lt;font style=&quot;font-size: 12px;&quot;&gt;ingin di edit&lt;/font&gt;&lt;/div&gt;&lt;div style=&quot;font-size: 10px;&quot;&gt;&lt;br&gt;&lt;/div&gt;" style="shape=parallelogram;perimeter=parallelogramPerimeter;whiteSpace=wrap;html=1;fixedSize=1;" parent="1" vertex="1">
          <mxGeometry x="530.75" y="845" width="138.5" height="65" as="geometry" />
        </mxCell>
        <mxCell id="OFa0QZV5chmp_ZGWXEVX-73" value="" style="edgeStyle=orthogonalEdgeStyle;rounded=0;orthogonalLoop=1;jettySize=auto;html=1;" parent="1" source="OFa0QZV5chmp_ZGWXEVX-22" target="OFa0QZV5chmp_ZGWXEVX-72" edge="1">
          <mxGeometry relative="1" as="geometry" />
        </mxCell>
        <mxCell id="OFa0QZV5chmp_ZGWXEVX-22" value="&lt;b&gt;Output&amp;nbsp;&lt;/b&gt;&lt;div&gt;Catatan berhasil di edit&amp;nbsp;&lt;/div&gt;" style="shape=parallelogram;perimeter=parallelogramPerimeter;whiteSpace=wrap;html=1;fixedSize=1;" parent="1" vertex="1">
          <mxGeometry x="520" y="940" width="160" height="60" as="geometry" />
        </mxCell>
        <mxCell id="OFa0QZV5chmp_ZGWXEVX-28" value="" style="edgeStyle=orthogonalEdgeStyle;rounded=0;orthogonalLoop=1;jettySize=auto;html=1;entryX=0.5;entryY=0;entryDx=0;entryDy=0;" parent="1" source="OFa0QZV5chmp_ZGWXEVX-25" target="QvUUkNCLXhxBll5FFId4-54" edge="1">
          <mxGeometry relative="1" as="geometry" />
        </mxCell>
        <mxCell id="OFa0QZV5chmp_ZGWXEVX-64" value="" style="edgeStyle=orthogonalEdgeStyle;rounded=0;orthogonalLoop=1;jettySize=auto;html=1;" parent="1" source="OFa0QZV5chmp_ZGWXEVX-25" target="OFa0QZV5chmp_ZGWXEVX-63" edge="1">
          <mxGeometry relative="1" as="geometry" />
        </mxCell>
        <mxCell id="OFa0QZV5chmp_ZGWXEVX-25" value="Pilihan = 4" style="rhombus;whiteSpace=wrap;html=1;" parent="1" vertex="1">
          <mxGeometry x="738" y="605" width="87" height="80" as="geometry" />
        </mxCell>
        <mxCell id="FYlPLXtmQj6snUq1epLe-18" value="" style="edgeStyle=orthogonalEdgeStyle;rounded=0;orthogonalLoop=1;jettySize=auto;html=1;" parent="1" source="OFa0QZV5chmp_ZGWXEVX-27" target="OFa0QZV5chmp_ZGWXEVX-29" edge="1">
          <mxGeometry relative="1" as="geometry" />
        </mxCell>
        <mxCell id="OFa0QZV5chmp_ZGWXEVX-27" value="&lt;b&gt;Input&amp;nbsp;&lt;/b&gt;&lt;div&gt;Index catatan&amp;nbsp;&lt;/div&gt;&lt;div&gt;yang ingin di hapus&lt;/div&gt;" style="shape=parallelogram;perimeter=parallelogramPerimeter;whiteSpace=wrap;html=1;fixedSize=1;" parent="1" vertex="1">
          <mxGeometry x="708.37" y="850" width="148.25" height="60" as="geometry" />
        </mxCell>
        <mxCell id="FYlPLXtmQj6snUq1epLe-19" value="" style="edgeStyle=orthogonalEdgeStyle;rounded=0;orthogonalLoop=1;jettySize=auto;html=1;" parent="1" source="OFa0QZV5chmp_ZGWXEVX-29" target="OFa0QZV5chmp_ZGWXEVX-76" edge="1">
          <mxGeometry relative="1" as="geometry" />
        </mxCell>
        <mxCell id="OFa0QZV5chmp_ZGWXEVX-29" value="&lt;b&gt;Output&lt;/b&gt;&lt;div&gt;Catatan ke (nomor catatan) berhasil dihapus&lt;/div&gt;" style="shape=parallelogram;perimeter=parallelogramPerimeter;whiteSpace=wrap;html=1;fixedSize=1;" parent="1" vertex="1">
          <mxGeometry x="692.49" y="940" width="180" height="60" as="geometry" />
        </mxCell>
        <mxCell id="OFa0QZV5chmp_ZGWXEVX-31" value="&lt;b&gt;Input&amp;nbsp;&lt;/b&gt;&lt;div&gt;Klik enter untuk memilih menu lagi&lt;/div&gt;" style="shape=parallelogram;perimeter=parallelogramPerimeter;whiteSpace=wrap;html=1;fixedSize=1;" parent="1" vertex="1">
          <mxGeometry x="330" y="1030" width="160" height="60" as="geometry" />
        </mxCell>
        <mxCell id="OFa0QZV5chmp_ZGWXEVX-50" value="" style="edgeStyle=orthogonalEdgeStyle;rounded=0;orthogonalLoop=1;jettySize=auto;html=1;" parent="1" source="OFa0QZV5chmp_ZGWXEVX-48" target="wc6qztgDE9MtCntjSy3h-16" edge="1">
          <mxGeometry relative="1" as="geometry" />
        </mxCell>
        <mxCell id="OFa0QZV5chmp_ZGWXEVX-48" value="&lt;b&gt;Input&lt;/b&gt;&lt;div&gt;Masukkan pilihan&amp;nbsp;&lt;/div&gt;" style="shape=parallelogram;perimeter=parallelogramPerimeter;whiteSpace=wrap;html=1;fixedSize=1;" parent="1" vertex="1">
          <mxGeometry x="193" y="500" width="120" height="77" as="geometry" />
        </mxCell>
        <mxCell id="OFa0QZV5chmp_ZGWXEVX-66" value="" style="edgeStyle=orthogonalEdgeStyle;rounded=0;orthogonalLoop=1;jettySize=auto;html=1;" parent="1" source="OFa0QZV5chmp_ZGWXEVX-63" target="OFa0QZV5chmp_ZGWXEVX-65" edge="1">
          <mxGeometry relative="1" as="geometry" />
        </mxCell>
        <mxCell id="OFa0QZV5chmp_ZGWXEVX-83" value="" style="edgeStyle=orthogonalEdgeStyle;rounded=0;orthogonalLoop=1;jettySize=auto;html=1;" parent="1" source="OFa0QZV5chmp_ZGWXEVX-63" edge="1">
          <mxGeometry relative="1" as="geometry">
            <mxPoint x="1050" y="645" as="targetPoint" />
          </mxGeometry>
        </mxCell>
        <mxCell id="OFa0QZV5chmp_ZGWXEVX-63" value="Pilihan = 5" style="rhombus;whiteSpace=wrap;html=1;" parent="1" vertex="1">
          <mxGeometry x="907" y="605" width="87" height="80" as="geometry" />
        </mxCell>
        <mxCell id="sX42V4_6nj7cVVWGtTFy-5" value="" style="edgeStyle=orthogonalEdgeStyle;rounded=0;orthogonalLoop=1;jettySize=auto;html=1;" parent="1" source="OFa0QZV5chmp_ZGWXEVX-65" target="sX42V4_6nj7cVVWGtTFy-4" edge="1">
          <mxGeometry relative="1" as="geometry" />
        </mxCell>
        <mxCell id="OFa0QZV5chmp_ZGWXEVX-65" value="&lt;b&gt;Output&lt;/b&gt;&lt;div&gt;Anda Telah Keluar dari Program&lt;/div&gt;" style="shape=parallelogram;perimeter=parallelogramPerimeter;whiteSpace=wrap;html=1;fixedSize=1;" parent="1" vertex="1">
          <mxGeometry x="870" y="730" width="160" height="60" as="geometry" />
        </mxCell>
        <mxCell id="OFa0QZV5chmp_ZGWXEVX-72" value="&lt;b&gt;Input&lt;/b&gt;&lt;br&gt;&lt;div&gt;Klik enter untuk memilih menu lagi&lt;/div&gt;" style="shape=parallelogram;perimeter=parallelogramPerimeter;whiteSpace=wrap;html=1;fixedSize=1;" parent="1" vertex="1">
          <mxGeometry x="520" y="1030" width="160" height="60" as="geometry" />
        </mxCell>
        <mxCell id="OFa0QZV5chmp_ZGWXEVX-76" value="&lt;b&gt;Input&lt;/b&gt;&lt;div&gt;Klik enter untuk&amp;nbsp;&lt;/div&gt;&lt;div&gt;memilih menu lagi&lt;/div&gt;" style="shape=parallelogram;perimeter=parallelogramPerimeter;whiteSpace=wrap;html=1;fixedSize=1;" parent="1" vertex="1">
          <mxGeometry x="692.49" y="1040" width="178" height="60" as="geometry" />
        </mxCell>
        <mxCell id="FYlPLXtmQj6snUq1epLe-2" value="False" style="text;html=1;align=center;verticalAlign=middle;whiteSpace=wrap;rounded=0;" parent="1" vertex="1">
          <mxGeometry x="140" y="217" width="60" height="30" as="geometry" />
        </mxCell>
        <mxCell id="FYlPLXtmQj6snUq1epLe-3" value="&lt;b&gt;Input&lt;/b&gt;&lt;div&gt;Klik enter untuk memilih menu lagi&lt;/div&gt;" style="shape=parallelogram;perimeter=parallelogramPerimeter;whiteSpace=wrap;html=1;fixedSize=1;" parent="1" vertex="1">
          <mxGeometry x="175.25" y="890" width="156.5" height="60" as="geometry" />
        </mxCell>
        <mxCell id="QvUUkNCLXhxBll5FFId4-90" value="" style="edgeStyle=orthogonalEdgeStyle;rounded=0;orthogonalLoop=1;jettySize=auto;html=1;entryX=0.5;entryY=0;entryDx=0;entryDy=0;" edge="1" parent="1" source="wc6qztgDE9MtCntjSy3h-20" target="QvUUkNCLXhxBll5FFId4-51">
          <mxGeometry relative="1" as="geometry" />
        </mxCell>
        <mxCell id="wc6qztgDE9MtCntjSy3h-20" value="&amp;nbsp;Pilihan = 2" style="rhombus;whiteSpace=wrap;html=1;" parent="1" vertex="1">
          <mxGeometry x="366.5" y="605" width="87" height="80" as="geometry" />
        </mxCell>
        <mxCell id="FYlPLXtmQj6snUq1epLe-25" value="True" style="text;html=1;align=center;verticalAlign=middle;whiteSpace=wrap;rounded=0;rotation=90;" parent="1" vertex="1">
          <mxGeometry x="941" y="700" width="53" height="10" as="geometry" />
        </mxCell>
        <mxCell id="FYlPLXtmQj6snUq1epLe-26" value="False" style="text;html=1;align=center;verticalAlign=middle;whiteSpace=wrap;rounded=0;rotation=0;" parent="1" vertex="1">
          <mxGeometry x="299.5" y="615" width="54" height="15" as="geometry" />
        </mxCell>
        <mxCell id="FYlPLXtmQj6snUq1epLe-29" value="False" style="text;html=1;align=center;verticalAlign=middle;whiteSpace=wrap;rounded=0;rotation=0;" parent="1" vertex="1">
          <mxGeometry x="473.5" y="615" width="54" height="15" as="geometry" />
        </mxCell>
        <mxCell id="FYlPLXtmQj6snUq1epLe-30" value="False" style="text;html=1;align=center;verticalAlign=middle;whiteSpace=wrap;rounded=0;rotation=0;" parent="1" vertex="1">
          <mxGeometry x="660" y="615" width="54" height="15" as="geometry" />
        </mxCell>
        <mxCell id="FYlPLXtmQj6snUq1epLe-31" value="False" style="text;html=1;align=center;verticalAlign=middle;whiteSpace=wrap;rounded=0;rotation=0;" parent="1" vertex="1">
          <mxGeometry x="836.5" y="615" width="54" height="15" as="geometry" />
        </mxCell>
        <mxCell id="FYlPLXtmQj6snUq1epLe-32" value="False" style="text;html=1;align=center;verticalAlign=middle;whiteSpace=wrap;rounded=0;rotation=0;" parent="1" vertex="1">
          <mxGeometry x="994" y="615" width="54" height="15" as="geometry" />
        </mxCell>
        <mxCell id="FYlPLXtmQj6snUq1epLe-33" value="True" style="text;html=1;align=center;verticalAlign=middle;whiteSpace=wrap;rounded=0;rotation=90;" parent="1" vertex="1">
          <mxGeometry x="246.5" y="310" width="53" height="10" as="geometry" />
        </mxCell>
        <mxCell id="sX42V4_6nj7cVVWGtTFy-4" value="End" style="ellipse;whiteSpace=wrap;html=1;" parent="1" vertex="1">
          <mxGeometry x="890" y="830" width="120" height="80" as="geometry" />
        </mxCell>
        <mxCell id="QvUUkNCLXhxBll5FFId4-2" value="" style="edgeStyle=none;curved=1;rounded=0;orthogonalLoop=1;jettySize=auto;html=1;fontSize=12;startSize=8;endSize=8;" edge="1" parent="1" source="wc6qztgDE9MtCntjSy3h-1">
          <mxGeometry relative="1" as="geometry">
            <mxPoint x="253" y="-458" as="sourcePoint" />
            <mxPoint x="253" y="-430" as="targetPoint" />
          </mxGeometry>
        </mxCell>
        <mxCell id="QvUUkNCLXhxBll5FFId4-6" value="" style="edgeStyle=orthogonalEdgeStyle;rounded=0;orthogonalLoop=1;jettySize=auto;html=1;" edge="1" parent="1">
          <mxGeometry relative="1" as="geometry">
            <mxPoint x="253.02857142857135" y="-310" as="sourcePoint" />
            <mxPoint x="253.02857142857135" y="-280" as="targetPoint" />
          </mxGeometry>
        </mxCell>
        <mxCell id="QvUUkNCLXhxBll5FFId4-8" value="" style="edgeStyle=orthogonalEdgeStyle;rounded=0;orthogonalLoop=1;jettySize=auto;html=1;" edge="1" parent="1">
          <mxGeometry relative="1" as="geometry">
            <mxPoint x="253" y="-240" as="sourcePoint" />
            <mxPoint x="253.02857142857135" y="-200" as="targetPoint" />
          </mxGeometry>
        </mxCell>
        <mxCell id="QvUUkNCLXhxBll5FFId4-10" value="" style="edgeStyle=orthogonalEdgeStyle;rounded=0;orthogonalLoop=1;jettySize=auto;html=1;" edge="1" parent="1">
          <mxGeometry relative="1" as="geometry">
            <mxPoint x="253" y="-160" as="sourcePoint" />
            <mxPoint x="253.02857142857135" y="-120" as="targetPoint" />
          </mxGeometry>
        </mxCell>
        <mxCell id="QvUUkNCLXhxBll5FFId4-11" value="" style="edgeStyle=orthogonalEdgeStyle;rounded=0;orthogonalLoop=1;jettySize=auto;html=1;" edge="1" parent="1" target="wc6qztgDE9MtCntjSy3h-2">
          <mxGeometry relative="1" as="geometry">
            <mxPoint x="253" y="-80" as="sourcePoint" />
          </mxGeometry>
        </mxCell>
        <mxCell id="QvUUkNCLXhxBll5FFId4-29" value="" style="edgeStyle=orthogonalEdgeStyle;rounded=0;orthogonalLoop=1;jettySize=auto;html=1;" edge="1" parent="1" target="wc6qztgDE9MtCntjSy3h-18">
          <mxGeometry relative="1" as="geometry">
            <mxPoint x="253.5" y="740" as="sourcePoint" />
          </mxGeometry>
        </mxCell>
        <mxCell id="QvUUkNCLXhxBll5FFId4-45" value="def show()" style="shape=internalStorage;whiteSpace=wrap;html=1;backgroundOutline=1;dx=13;dy=10;" vertex="1" parent="1">
          <mxGeometry x="190" y="-430" width="120" height="40" as="geometry" />
        </mxCell>
        <mxCell id="QvUUkNCLXhxBll5FFId4-46" value="def tambah()" style="shape=internalStorage;whiteSpace=wrap;html=1;backgroundOutline=1;dx=13;dy=10;" vertex="1" parent="1">
          <mxGeometry x="190" y="-350" width="120" height="40" as="geometry" />
        </mxCell>
        <mxCell id="QvUUkNCLXhxBll5FFId4-47" value="def edit()" style="shape=internalStorage;whiteSpace=wrap;html=1;backgroundOutline=1;dx=13;dy=10;" vertex="1" parent="1">
          <mxGeometry x="190" y="-280" width="120" height="40" as="geometry" />
        </mxCell>
        <mxCell id="QvUUkNCLXhxBll5FFId4-48" value="def delete()" style="shape=internalStorage;whiteSpace=wrap;html=1;backgroundOutline=1;dx=13;dy=10;" vertex="1" parent="1">
          <mxGeometry x="190" y="-200" width="120" height="40" as="geometry" />
        </mxCell>
        <mxCell id="QvUUkNCLXhxBll5FFId4-49" value="def valid_index()" style="shape=internalStorage;whiteSpace=wrap;html=1;backgroundOutline=1;dx=13;dy=10;" vertex="1" parent="1">
          <mxGeometry x="190.5" y="-120" width="123" height="40" as="geometry" />
        </mxCell>
        <mxCell id="QvUUkNCLXhxBll5FFId4-50" value="def show()" style="shape=process;whiteSpace=wrap;html=1;backgroundOutline=1;" vertex="1" parent="1">
          <mxGeometry x="200" y="730" width="120" height="40" as="geometry" />
        </mxCell>
        <mxCell id="QvUUkNCLXhxBll5FFId4-91" value="" style="edgeStyle=orthogonalEdgeStyle;rounded=0;orthogonalLoop=1;jettySize=auto;html=1;" edge="1" parent="1" source="QvUUkNCLXhxBll5FFId4-51" target="QvUUkNCLXhxBll5FFId4-62">
          <mxGeometry relative="1" as="geometry" />
        </mxCell>
        <mxCell id="QvUUkNCLXhxBll5FFId4-51" value="def show()" style="shape=process;whiteSpace=wrap;html=1;backgroundOutline=1;" vertex="1" parent="1">
          <mxGeometry x="350" y="730" width="120" height="30" as="geometry" />
        </mxCell>
        <mxCell id="QvUUkNCLXhxBll5FFId4-60" value="" style="edgeStyle=orthogonalEdgeStyle;rounded=0;orthogonalLoop=1;jettySize=auto;html=1;" edge="1" parent="1" source="QvUUkNCLXhxBll5FFId4-52" target="QvUUkNCLXhxBll5FFId4-59">
          <mxGeometry relative="1" as="geometry" />
        </mxCell>
        <mxCell id="QvUUkNCLXhxBll5FFId4-52" value="def show()" style="shape=process;whiteSpace=wrap;html=1;backgroundOutline=1;" vertex="1" parent="1">
          <mxGeometry x="540" y="730" width="120" height="30" as="geometry" />
        </mxCell>
        <mxCell id="QvUUkNCLXhxBll5FFId4-82" value="" style="edgeStyle=orthogonalEdgeStyle;rounded=0;orthogonalLoop=1;jettySize=auto;html=1;" edge="1" parent="1" source="QvUUkNCLXhxBll5FFId4-54" target="QvUUkNCLXhxBll5FFId4-57">
          <mxGeometry relative="1" as="geometry" />
        </mxCell>
        <mxCell id="QvUUkNCLXhxBll5FFId4-54" value="def show()" style="shape=process;whiteSpace=wrap;html=1;backgroundOutline=1;" vertex="1" parent="1">
          <mxGeometry x="721.49" y="730" width="120" height="30" as="geometry" />
        </mxCell>
        <mxCell id="QvUUkNCLXhxBll5FFId4-58" value="" style="edgeStyle=orthogonalEdgeStyle;rounded=0;orthogonalLoop=1;jettySize=auto;html=1;" edge="1" parent="1" source="QvUUkNCLXhxBll5FFId4-57" target="OFa0QZV5chmp_ZGWXEVX-27">
          <mxGeometry relative="1" as="geometry" />
        </mxCell>
        <mxCell id="QvUUkNCLXhxBll5FFId4-57" value="def delete()" style="shape=process;whiteSpace=wrap;html=1;backgroundOutline=1;" vertex="1" parent="1">
          <mxGeometry x="722.49" y="787.5" width="120" height="30" as="geometry" />
        </mxCell>
        <mxCell id="QvUUkNCLXhxBll5FFId4-61" value="" style="edgeStyle=orthogonalEdgeStyle;rounded=0;orthogonalLoop=1;jettySize=auto;html=1;" edge="1" parent="1" source="QvUUkNCLXhxBll5FFId4-59" target="OFa0QZV5chmp_ZGWXEVX-20">
          <mxGeometry relative="1" as="geometry" />
        </mxCell>
        <mxCell id="QvUUkNCLXhxBll5FFId4-59" value="def edit()" style="shape=process;whiteSpace=wrap;html=1;backgroundOutline=1;" vertex="1" parent="1">
          <mxGeometry x="540" y="787.5" width="120" height="30" as="geometry" />
        </mxCell>
        <mxCell id="QvUUkNCLXhxBll5FFId4-92" value="" style="edgeStyle=orthogonalEdgeStyle;rounded=0;orthogonalLoop=1;jettySize=auto;html=1;" edge="1" parent="1" source="QvUUkNCLXhxBll5FFId4-62" target="OFa0QZV5chmp_ZGWXEVX-13">
          <mxGeometry relative="1" as="geometry" />
        </mxCell>
        <mxCell id="QvUUkNCLXhxBll5FFId4-62" value="def tambah()" style="shape=process;whiteSpace=wrap;html=1;backgroundOutline=1;" vertex="1" parent="1">
          <mxGeometry x="350" y="790" width="120" height="30" as="geometry" />
        </mxCell>
        <mxCell id="QvUUkNCLXhxBll5FFId4-63" value="&lt;b&gt;Output&lt;/b&gt;&lt;div&gt;Pilhan tidak sesuai&lt;/div&gt;" style="shape=parallelogram;perimeter=parallelogramPerimeter;whiteSpace=wrap;html=1;fixedSize=1;" vertex="1" parent="1">
          <mxGeometry x="1040" y="615" width="140" height="60" as="geometry" />
        </mxCell>
        <mxCell id="QvUUkNCLXhxBll5FFId4-67" value="" style="shape=partialRectangle;whiteSpace=wrap;html=1;right=0;top=0;bottom=0;fillColor=none;routingCenterX=-0.5;rotation=90;" vertex="1" parent="1">
          <mxGeometry x="80" y="537" width="119.5" height="126.5" as="geometry" />
        </mxCell>
        <mxCell id="QvUUkNCLXhxBll5FFId4-78" value="" style="shape=partialRectangle;whiteSpace=wrap;html=1;right=0;top=0;bottom=0;fillColor=none;routingCenterX=-0.5;" vertex="1" parent="1">
          <mxGeometry x="80" y="1060" width="120" height="60" as="geometry" />
        </mxCell>
        <mxCell id="QvUUkNCLXhxBll5FFId4-81" value="" style="shape=partialRectangle;whiteSpace=wrap;html=1;right=0;top=0;bottom=0;fillColor=none;routingCenterX=-0.5;" vertex="1" parent="1">
          <mxGeometry x="80" y="1100" width="120" height="60" as="geometry" />
        </mxCell>
        <mxCell id="QvUUkNCLXhxBll5FFId4-83" value="True" style="text;html=1;align=center;verticalAlign=middle;whiteSpace=wrap;rounded=0;rotation=90;" vertex="1" parent="1">
          <mxGeometry x="772" y="700" width="53" height="10" as="geometry" />
        </mxCell>
        <mxCell id="QvUUkNCLXhxBll5FFId4-89" value="True" style="text;html=1;align=center;verticalAlign=middle;whiteSpace=wrap;rounded=0;rotation=90;" vertex="1" parent="1">
          <mxGeometry x="594" y="700" width="53" height="10" as="geometry" />
        </mxCell>
        <mxCell id="QvUUkNCLXhxBll5FFId4-93" value="True" style="text;html=1;align=center;verticalAlign=middle;whiteSpace=wrap;rounded=0;rotation=90;" vertex="1" parent="1">
          <mxGeometry x="400.5" y="700" width="53" height="10" as="geometry" />
        </mxCell>
        <mxCell id="QvUUkNCLXhxBll5FFId4-94" value="True" style="text;html=1;align=center;verticalAlign=middle;whiteSpace=wrap;rounded=0;rotation=90;" vertex="1" parent="1">
          <mxGeometry x="244" y="700" width="53" height="10" as="geometry" />
        </mxCell>
      </root>
    </mxGraphModel>
  </diagram>
</mxfile>
